<svg width="48" height="48" viewBox="0 0 48 48" fill="none" xmlns="http://www.w3.org/2000/svg">
<path d="M13.894 36.994H13.481L11.418 34.931V34.519L14.581 31.356H16.781L17.09 31.665V33.865L13.894 36.994Z" fill="#05BDBA"/>
<path d="M11.4189 13.516V13.103L13.4819 11.04H13.8949L17.0579 14.203V16.403L16.7829 16.678H14.5829L11.4189 13.516Z" fill="#05BDBA"/>
<path d="M29.6718 30.2909H26.6468L26.4058 30.0499V22.9689C26.4058 21.6969 25.9248 20.7349 24.4118 20.6999C23.6208 20.6659 22.7278 20.6999 21.7998 20.7339L21.6618 20.8709V30.0149L21.4208 30.2559H18.3958L18.1548 30.0149V17.9839L18.3958 17.7429H25.2018C27.8488 17.7429 29.9798 19.8739 29.9798 22.5209V30.0489L29.6718 30.2909Z" fill="#014847"/>
<path d="M14.306 25.7531H2.241L2 25.5131V22.4881L2.241 22.2471H14.307L14.548 22.4881V25.5131L14.306 25.7531Z" fill="#05BDBA"/>
<path d="M45.7591 25.7531H33.6941L33.4531 25.5121V22.4871L33.6941 22.2461H45.7601L46.0001 22.4881V25.5131L45.7591 25.7531Z" fill="#05BDBA"/>
<path d="M22.2471 13.963V4.88797L22.5221 4.64697H25.5471L25.7881 4.88797V13.929L25.5471 14.17H22.5221L22.2471 13.963Z" fill="#05BDBA"/>
<path d="M22.2471 43.1131V34.0721L22.4881 33.8311H25.5131L25.7541 34.0721V43.1131L25.5131 43.3541H22.4881L22.2471 43.1131Z" fill="#05BDBA"/>
</svg>
